<svg width="309" height="89" viewBox="0 0 309 89" fill="none" xmlns="http://www.w3.org/2000/svg">
<path d="M6.66675 44.5C6.66675 24.0194 21.5906 7.41663 40.0001 7.41663C41.5424 7.41663 41.7974 9.98824 40.4774 10.8756C34.1981 15.0968 30.0001 22.7634 30.0001 31.5208C30.0001 44.8333 39.7004 55.625 51.6668 55.625C59.5384 55.625 66.4298 50.9547 70.2241 43.9689C71.0218 42.5004 73.3334 42.7841 73.3334 44.5C73.3334 48.7189 72.7001 52.7733 71.5334 56.552H73.3334C74.7141 56.552 75.8334 57.7973 75.8334 59.3333C75.8334 60.8693 74.7141 62.1145 73.3334 62.1145H6.66675C5.28605 62.1145 4.16675 60.8693 4.16675 59.3333C4.16675 57.7973 5.28605 56.552 6.66675 56.552H8.46668C7.30005 52.7733 6.66675 48.7189 6.66675 44.5Z" fill="#DA4256"/>
<path d="M16.6667 67.6771C15.286 67.6771 14.1667 68.9224 14.1667 70.4584C14.1667 71.9944 15.286 73.2396 16.6667 73.2396H63.3334C64.7141 73.2396 65.8334 71.9944 65.8334 70.4584C65.8334 68.9224 64.7141 67.6771 63.3334 67.6771H16.6667Z" fill="#DA4256"/>
<path d="M26.6667 78.8021C25.286 78.8021 24.1667 80.0474 24.1667 81.5834C24.1667 83.1194 25.286 84.3646 26.6667 84.3646H53.3334C54.7141 84.3646 55.8334 83.1194 55.8334 81.5834C55.8334 80.0474 54.7141 78.8021 53.3334 78.8021H26.6667Z" fill="#DA4256"/>
<path d="M55.8966 49.0708C55.7706 49.0708 55.5006 49.0528 55.0866 49.0168C54.6726 48.9628 54.1866 48.8998 53.6286 48.8278C53.0886 48.7558 52.5396 48.6838 51.9816 48.6118C51.4236 48.5218 50.9286 48.4408 50.4966 48.3688C50.0826 48.2968 49.7946 48.2338 49.6326 48.1798C49.6326 47.9998 49.6596 47.8288 49.7136 47.6668C49.7676 47.5048 49.8216 47.3878 49.8756 47.3158L50.6586 47.2078C50.9646 47.1538 51.2076 47.0548 51.3876 46.9108C51.5856 46.7488 51.7296 46.4788 51.8196 46.1008C51.9096 45.7228 51.9546 45.1918 51.9546 44.5078V33.8428C51.9546 33.3028 51.9816 32.8888 52.0356 32.6008C52.1076 32.2948 52.1796 32.0788 52.2516 31.9528C52.3416 31.8088 52.3956 31.7368 52.4136 31.7368H49.9296C49.8756 31.6648 49.8126 31.5478 49.7406 31.3858C49.6686 31.2238 49.6236 31.0618 49.6056 30.8998C49.7136 30.7918 49.8756 30.6748 50.0916 30.5488C50.3256 30.4228 50.5506 30.3148 50.7666 30.2248C51.0006 30.1168 51.1716 30.0628 51.2796 30.0628H62.8626C63.2586 30.2068 63.6636 30.4138 64.0776 30.6838C64.5096 30.9538 64.8606 31.2598 65.1306 31.6018C65.0586 32.6638 64.9326 33.6448 64.7526 34.5448C64.5906 35.4268 64.4376 36.0838 64.2936 36.5158C63.9336 36.5158 63.5646 36.4798 63.1866 36.4078C62.8266 36.3358 62.5566 36.2638 62.3766 36.1918L61.6476 32.2768C61.3776 32.1688 60.8736 32.0608 60.1356 31.9528C59.3976 31.8448 58.4706 31.7908 57.3546 31.7908C56.6526 31.7908 56.2026 31.9798 56.0046 32.3578C55.8066 32.7358 55.7076 33.2578 55.7076 33.9238V38.7028C56.4636 38.6848 57.1476 38.6668 57.7596 38.6488C58.3896 38.6128 58.9746 38.5678 59.5146 38.5138C60.0546 38.4598 60.5856 38.4058 61.1076 38.3518L61.4316 38.7298C61.4136 39.1438 61.3686 39.5038 61.2966 39.8098C61.2426 40.1158 61.1886 40.3408 61.1346 40.4848H55.7076V45.2098C55.7076 45.6598 55.6536 46.0468 55.5456 46.3708C55.4376 46.6768 55.3296 46.8838 55.2216 46.9918L58.0296 47.3428C58.0656 47.4148 58.1106 47.5228 58.1646 47.6668C58.2186 47.8108 58.2456 47.9818 58.2456 48.1798C57.9936 48.3958 57.6246 48.6028 57.1386 48.8008C56.6526 48.9808 56.2386 49.0708 55.8966 49.0708Z" fill="#DA4256"/>
<path d="M41.3781 39C41.1981 39 40.9731 38.883 40.7031 38.649C40.4511 38.415 40.2171 38.127 40.0011 37.785C39.7851 37.425 39.6771 37.083 39.6771 36.759C40.4871 35.913 41.3151 34.941 42.1611 33.843C43.0251 32.745 43.8891 31.575 44.7531 30.333C45.6351 29.073 46.5081 27.804 47.3721 26.526C47.8941 25.734 48.3981 24.969 48.8841 24.231C49.3701 23.493 49.8291 22.8 50.2611 22.152L43.6461 21.882L42.8361 26.121C42.6561 26.211 42.3771 26.292 41.9991 26.364C41.6391 26.436 41.2791 26.472 40.9191 26.472C40.7931 26.022 40.6581 25.5 40.5141 24.906C40.3881 24.312 40.2801 23.7 40.1901 23.07C40.1001 22.422 40.0551 21.819 40.0551 21.261C40.1631 21.117 40.3431 20.955 40.5951 20.775C40.8471 20.577 41.1171 20.388 41.4051 20.208C41.6931 20.028 41.9631 19.884 42.2151 19.776C42.4671 19.65 42.6471 19.587 42.7551 19.587C42.8991 19.587 43.2321 19.605 43.7541 19.641C44.2761 19.677 44.8971 19.722 45.6171 19.776C46.3371 19.83 47.0661 19.893 47.8041 19.965C48.5421 20.019 49.2081 20.073 49.8021 20.127C50.3961 20.163 50.8191 20.19 51.0711 20.208C51.2691 20.172 51.5301 20.118 51.8541 20.046C52.1781 19.974 52.4931 19.902 52.7991 19.83C53.1231 19.74 53.3481 19.668 53.4741 19.614C53.7441 19.758 54.0321 20.001 54.3381 20.343C54.6621 20.667 54.8691 21.09 54.9591 21.612L45.1311 35.895L51.4761 36.489L53.0691 31.926C53.5011 31.926 53.9061 31.98 54.2841 32.088C54.6621 32.196 54.9321 32.295 55.0941 32.385C55.0941 33.213 55.0671 33.978 55.0131 34.68C54.9591 35.364 54.8961 35.958 54.8241 36.462C54.7701 36.966 54.7071 37.353 54.6351 37.623C54.5091 37.767 54.3381 37.92 54.1221 38.082C53.9061 38.226 53.6631 38.37 53.3931 38.514C53.1411 38.658 52.9071 38.775 52.6911 38.865C52.4751 38.955 52.2951 39 52.1511 39C51.8631 39 51.4041 38.964 50.7741 38.892C50.1441 38.802 49.4421 38.703 48.6681 38.595C47.8941 38.469 47.1201 38.343 46.3461 38.217C45.5721 38.091 44.8971 37.992 44.3211 37.92C43.7451 37.83 43.3581 37.785 43.1601 37.785C42.9621 37.965 42.7371 38.154 42.4851 38.352C42.2511 38.532 42.0261 38.685 41.8101 38.811C41.6121 38.937 41.4681 39 41.3781 39Z" fill="#DA4256"/>
<path d="M81.658 53V51.68L93.478 33.88H86.638C85.8646 35.52 85.278 36.7933 84.878 37.7C84.4913 38.5933 84.218 39.3267 84.058 39.9L82.518 39.8L83.278 32.02H101.298V33.3L89.558 51.14H97.238C97.8113 50.0733 98.3246 49.02 98.778 47.98C99.2446 46.9267 99.578 46.0467 99.778 45.34L101.298 45.42L100.838 53H81.658ZM115.335 53.42C113.148 53.42 111.235 52.98 109.595 52.1C107.968 51.2067 106.702 49.9667 105.795 48.38C104.902 46.78 104.455 44.9333 104.455 42.84C104.455 40.6133 104.955 38.66 105.955 36.98C106.955 35.3 108.342 33.9867 110.115 33.04C111.902 32.0933 113.968 31.62 116.315 31.62C119.342 31.62 121.642 32.44 123.215 34.08C124.802 35.7067 125.642 38.1067 125.735 41.28L125.435 41.54H108.155V39.74L119.175 39.34C119.282 39.06 119.335 38.56 119.335 37.84C119.335 35.04 118.162 33.64 115.815 33.64C114.282 33.64 113.102 34.3067 112.275 35.64C111.462 36.9733 111.055 38.8667 111.055 41.32C111.055 46.6533 113.115 49.32 117.235 49.32C120.088 49.32 122.335 48.3467 123.975 46.4L125.075 47.34C124.368 49.26 123.155 50.7533 121.435 51.82C119.728 52.8867 117.695 53.42 115.335 53.42ZM141.741 53V51.6L144.521 50.82V39.98C144.521 38.3533 144.195 37.1533 143.541 36.38C142.888 35.5933 141.908 35.2 140.601 35.2C138.948 35.2 137.628 35.9067 136.641 37.32V34.82C137.588 33.86 138.701 33.0867 139.981 32.5C141.275 31.9133 142.715 31.62 144.301 31.62C148.541 31.62 150.661 33.94 150.661 38.58V50.82L153.641 51.6V53H141.741ZM128.021 53V51.6L131.001 50.82V35.58L127.981 34.46V33.56L136.061 31.62H136.941V35L137.101 35.2V50.82L139.901 51.6V53H128.021ZM156.023 53V51.54L159.403 50.76V24.72L156.023 23.98V22.54H180.243L180.923 31.24H179.383C179.063 30.2 178.677 29.12 178.223 28C177.77 26.88 177.21 25.8 176.543 24.76H166.163V50.76L170.663 51.54V53H156.023ZM172.963 42.42C172.71 40.9533 172.223 39.4533 171.503 37.92H165.643V35.82H171.503C171.89 35.06 172.197 34.3133 172.423 33.58C172.65 32.8333 172.83 32.0933 172.963 31.36H174.523V42.42H172.963ZM192.249 53.42C190.063 53.42 188.149 52.98 186.509 52.1C184.883 51.2067 183.616 49.9667 182.709 48.38C181.816 46.78 181.369 44.9333 181.369 42.84C181.369 40.6133 181.869 38.66 182.869 36.98C183.869 35.3 185.256 33.9867 187.029 33.04C188.816 32.0933 190.883 31.62 193.229 31.62C196.256 31.62 198.556 32.44 200.129 34.08C201.716 35.7067 202.556 38.1067 202.649 41.28L202.349 41.54H185.069V39.74L196.089 39.34C196.196 39.06 196.249 38.56 196.249 37.84C196.249 35.04 195.076 33.64 192.729 33.64C191.196 33.64 190.016 34.3067 189.189 35.64C188.376 36.9733 187.969 38.8667 187.969 41.32C187.969 46.6533 190.029 49.32 194.149 49.32C197.003 49.32 199.249 48.3467 200.889 46.4L201.989 47.34C201.283 49.26 200.069 50.7533 198.349 51.82C196.643 52.8867 194.609 53.42 192.249 53.42ZM204.895 53V51.6L207.855 50.82V35.58L204.955 34.46V33.56L212.235 31.62H213.855V34.4L213.995 34.6V50.82L216.775 51.6V53H204.895ZM218.135 53V51.6L220.915 50.82V40.42C220.915 38.5133 220.635 37.1533 220.075 36.34C219.515 35.5133 218.582 35.1 217.275 35.1C216.302 35.1 215.475 35.3133 214.795 35.74C214.129 36.1533 213.522 36.7733 212.975 37.6V35.04C213.909 34.0133 215.109 33.1867 216.575 32.56C218.042 31.9333 219.522 31.62 221.015 31.62C223.082 31.62 224.602 32.22 225.575 33.42C226.562 34.62 227.055 36.5067 227.055 39.08V50.82L229.835 51.6V53H218.135ZM231.215 53V51.6L233.975 50.82V40.42C233.975 38.4867 233.715 37.1267 233.195 36.34C232.675 35.5533 231.775 35.16 230.495 35.16C229.549 35.16 228.709 35.36 227.975 35.76C227.255 36.16 226.609 36.7867 226.035 37.64V35.04C226.955 34.0133 228.155 33.1867 229.635 32.56C231.115 31.9333 232.609 31.62 234.115 31.62C236.155 31.62 237.662 32.22 238.635 33.42C239.609 34.62 240.095 36.5067 240.095 39.08V50.82L242.875 51.6V53H231.215ZM244.678 53V51.6L248.058 50.82V35.54L244.678 34.46V33.52L253.358 31.62H254.198V50.82L257.358 51.6V53H244.678ZM251.058 28.66C249.965 28.66 249.125 28.32 248.538 27.64C247.952 26.96 247.658 26.22 247.658 25.42C247.658 24.5533 247.958 23.7867 248.558 23.12C249.172 22.4533 250.005 22.12 251.058 22.12C252.138 22.12 252.992 22.4533 253.618 23.12C254.258 23.7867 254.578 24.5533 254.578 25.42C254.578 26.22 254.278 26.96 253.678 27.64C253.092 28.32 252.218 28.66 251.058 28.66ZM272.796 53V51.6L275.576 50.82V39.98C275.576 38.3533 275.249 37.1533 274.596 36.38C273.943 35.5933 272.963 35.2 271.656 35.2C270.003 35.2 268.683 35.9067 267.696 37.32V34.82C268.643 33.86 269.756 33.0867 271.036 32.5C272.329 31.9133 273.769 31.62 275.356 31.62C279.596 31.62 281.716 33.94 281.716 38.58V50.82L284.696 51.6V53H272.796ZM259.076 53V51.6L262.056 50.82V35.58L259.036 34.46V33.56L267.116 31.62H267.996V35L268.156 35.2V50.82L270.956 51.6V53H259.076ZM292.138 53.42C290.525 53.42 289.251 53 288.318 52.16C287.385 51.32 286.918 50.1733 286.918 48.72C286.918 47.4 287.331 46.26 288.158 45.3C288.985 44.34 290.251 43.54 291.958 42.9C293.678 42.2467 295.865 41.7333 298.518 41.36V38.46C298.518 36.6733 298.351 35.4733 298.018 34.86C297.698 34.2467 297.058 33.94 296.098 33.94C295.111 33.94 294.331 34.18 293.758 34.66C293.185 35.1267 292.898 35.7733 292.898 36.6C292.898 36.8933 292.925 37.1933 292.978 37.5C293.031 37.7933 293.058 38.08 293.058 38.36C293.058 39.12 292.791 39.7533 292.258 40.26C291.738 40.7533 291.091 41 290.318 41C289.545 41 288.918 40.7533 288.438 40.26C287.958 39.7533 287.718 39.1 287.718 38.3C287.718 37.4733 287.991 36.6467 288.538 35.82C289.085 34.9933 289.851 34.2533 290.838 33.6C292.918 32.28 295.418 31.62 298.338 31.62C299.765 31.62 300.911 31.7933 301.778 32.14C302.658 32.4733 303.318 32.96 303.758 33.6C304.065 34.0933 304.291 34.7333 304.438 35.52C304.585 36.3067 304.658 37.4333 304.658 38.9V47.06C304.658 48.2333 304.771 49.0867 304.998 49.62C305.225 50.14 305.605 50.4 306.138 50.4C306.738 50.4 307.331 50.0867 307.918 49.46L308.818 50.74C307.965 51.6467 307.071 52.32 306.138 52.76C305.205 53.2 304.171 53.42 303.038 53.42C301.745 53.42 300.765 53.16 300.098 52.64C299.431 52.12 298.998 51.3333 298.798 50.28H298.638C297.651 51.3467 296.625 52.14 295.558 52.66C294.491 53.1667 293.351 53.42 292.138 53.42ZM295.778 49.66C296.325 49.66 296.831 49.5667 297.298 49.38C297.765 49.1933 298.171 48.9133 298.518 48.54V43.22C297.238 43.4733 296.231 43.76 295.498 44.08C294.778 44.4 294.271 44.8 293.978 45.28C293.685 45.7467 293.538 46.3533 293.538 47.1C293.538 47.9667 293.718 48.6133 294.078 49.04C294.438 49.4533 295.005 49.66 295.778 49.66Z" fill="#DA4256"/>
</svg>
